<svg viewBox="0 0 64 64" xmlns="http://www.w3.org/2000/svg"><symbol viewBox="0 0 24 24" id="icon-backarrow"><title>backarrow</title><path fill="none" d="M0 0h24v24H0V0z"/><path d="M16.62 2.99c-.49-.49-1.28-.49-1.77 0L6.54 11.3c-.39.39-.39 1.02 0 1.41l8.31 8.31c.49.49 1.28.49 1.77 0s.49-1.28 0-1.77L9.38 12l7.25-7.25c.48-.48.48-1.28-.01-1.76z"/></symbol><symbol viewBox="0 0 24 24" id="icon-forwardarrow"><title>forwardarrow</title><g data-name="Layer 2"><path d="M10 19a1 1 0 0 1-.64-.23 1 1 0 0 1-.13-1.41L13.71 12 9.39 6.63a1 1 0 0 1 .15-1.41 1 1 0 0 1 1.46.15l4.83 6a1 1 0 0 1 0 1.27l-5 6A1 1 0 0 1 10 19z" data-name="arrow-ios-forward"/></g></symbol><symbol viewBox="0 0 96.000000 96.000000" id="icon-hamburger"><title>hamburger</title>

<g transform="translate(0.000000,96.000000) scale(0.100000,-0.100000)" stroke="none">
<path d="M130 725 c-10 -12 -10 -18 0 -30 11 -13 62 -15 350 -15 288 0 339 2
350 15 10 12 10 18 0 30 -11 13 -62 15 -350 15 -288 0 -339 -2 -350 -15z"/>
<path d="M128 493 c-7 -9 -7 -18 2 -28 11 -13 62 -15 349 -15 330 0 361 3 361
31 0 18 -63 22 -373 23 -252 1 -331 -2 -339 -11z"/>
<path d="M130 265 c-10 -12 -10 -18 0 -30 19 -23 681 -23 700 0 10 12 10 18 0
30 -19 23 -681 23 -700 0z"/>
</g>
</symbol><symbol viewBox="0 5 1036 990" id="icon-linkedin"><title>linkedin</title><path d="M0 120c0-33.334 11.667-60.834 35-82.5C58.333 15.833 88.667 5 126 5c36.667 0 66.333 10.666 89 32 23.333 22 35 50.666 35 86 0 32-11.333 58.666-34 80-23.333 22-54 33-92 33h-1c-36.667 0-66.333-11-89-33S0 153.333 0 120zm13 875V327h222v668H13zm345 0h222V622c0-23.334 2.667-41.334 8-54 9.333-22.667 23.5-41.834 42.5-57.5 19-15.667 42.833-23.5 71.5-23.5 74.667 0 112 50.333 112 151v357h222V612c0-98.667-23.333-173.5-70-224.5S857.667 311 781 311c-86 0-153 37-201 111v2h-1l1-2v-95H358c1.333 21.333 2 87.666 2 199 0 111.333-.667 267.666-2 469z"/></symbol></svg>